<svg viewBox="0 0 24 24" fill="#d9d9d9" xmlns="http://www.w3.org/2000/svg"><path d="M17.24 5.247a.85.85 0 01.845-.853h3.803c.56 0 1.098.225 1.494.625.396.4.619.941.619 1.506V20.59c0 .905-.356 1.772-.99 2.411a3.366 3.366 0 01-2.39.999c-.897 0-1.757-.36-2.39-.999a3.425 3.425 0 01-.99-2.41V5.246zm1.69.852V20.59c0 .453.178.886.495 1.206a1.683 1.683 0 002.39 0 1.71 1.71 0 00.496-1.206V6.525a.428.428 0 00-.124-.3.42.42 0 00-.299-.126H18.93z"></path><path d="M2.145 0h14.611a2.154 2.154 0 011.515.629c.402.4.629.944.63 1.511v18.423h-1.718V2.146a.432.432 0 00-.431-.43H2.149a.434.434 0 00-.43.43V21a1.29 1.29 0 001.29 1.287h17.61V24H3.005a3.017 3.017 0 01-2.121-.88A3.003 3.003 0 010 21.002V2.14A2.14 2.14 0 01.63.63 2.154 2.154 0 012.145 0z"></path><path d="M10.335 5.24c0-.467.389-.846.869-.846h3.477c.48 0 .869.379.869.845 0 .467-.39.846-.87.846h-3.476a.857.857 0 01-.87-.846zm0 3.38c0-.467.389-.845.869-.845h3.477c.48 0 .869.378.869.845 0 .466-.39.845-.87.845h-3.476a.857.857 0 01-.87-.845zM3.38 12c0-.467.389-.845.87-.845h10.43c.48 0 .869.378.869.845 0 .467-.39.845-.87.845H4.25A.857.857 0 013.38 12zm0 3.38c0-.466.389-.845.87-.845h10.43c.48 0 .869.379.869.845 0 .467-.39.845-.87.845H4.25a.857.857 0 01-.87-.845zm0 3.38c0-.466.389-.845.87-.845h10.43c.48 0 .869.379.869.846 0 .466-.39.845-.87.845H4.25a.857.857 0 01-.87-.845zM7.606 9.465h-3.38a.845.845 0 01-.845-.845V5.24a.845.845 0 01.845-.846h3.38a.845.845 0 01.845.845v3.38a.845.845 0 01-.845.846z"></path></svg>