<svg xmlns="http://www.w3.org/2000/svg" viewBox="0 0 1207.9 457.87" aria-label="Vocal logo" role="img" class="css-nsri7h-Header"><path fill="#1b1b1b" d="M230 456.93C104.3 456.93 2.05 354.68 2.05 229S104.3 1.07 230 1.07 457.93 103.32 457.93 229 355.68 456.93 230 456.93zm0-443.33C111.23 13.6 14.6 110.23 14.6 229S111.21 444.4 230 444.4 445.4 347.77 445.4 229 348.76 13.6 230 13.6z"></path><path fill="#1b1b1b" d="M125.95 279.79a6.78 6.78 0 01-6.78-6.78v-98.6a6.78 6.78 0 0113.55 0V273a6.78 6.78 0 01-6.77 6.79zM178 306.72a6.78 6.78 0 01-6.78-6.78v-98.6a6.78 6.78 0 0113.55 0v98.6a6.78 6.78 0 01-6.77 6.78zm52 27.16a6.78 6.78 0 01-6.78-6.78v-98.6a6.78 6.78 0 1113.55 0v98.6a6.78 6.78 0 01-6.77 6.78zm52-26.98a6.78 6.78 0 01-6.78-6.78v-98.6a6.78 6.78 0 0113.55 0v98.6a6.78 6.78 0 01-6.77 6.78zm52-27.11a6.78 6.78 0 01-6.78-6.78v-98.6a6.78 6.78 0 1113.55 0V273a6.78 6.78 0 01-6.77 6.79zm235.6-146.21l53.13 149.08 53.94-149.08h35l-73.49 193.53h-31.44L533 133.58zM774 331.44q-33.07 0-51.23-19.52t-18.16-55.29a93.84 93.84 0 014.72-30.63A66.11 66.11 0 01723 202.42a61.35 61.35 0 0122-15.18q13-5.42 29.54-5.42 16.8 0 29.82 5.56a61.44 61.44 0 0121.82 15.31 64.3 64.3 0 0113.28 23.45 96 96 0 014.47 30q0 18.44-5.15 32.39a66.17 66.17 0 01-14.5 23.58 60.66 60.66 0 01-22.09 14.5 78.24 78.24 0 01-28.19 4.83zm.27-24.94q19.52 0 28.6-13.42t9.08-36.73q0-23-9.08-36.32t-28.6-13.28q-19.51 0-28.6 13.42t-9.08 36.19q0 23 8.81 36.59t28.85 13.56zM996 277.78q-2.71 25.21-18 39.44t-43.77 14.23q-17.08 0-29.68-5.29a55.61 55.61 0 01-21-15A62.78 62.78 0 01871 287.67a106.87 106.87 0 01-4.07-30.49 97.64 97.64 0 014.61-30.76A66.86 66.86 0 01885 202.56a59.74 59.74 0 0121.55-15.31q12.74-5.42 29-5.42 14.9 0 25.21 3.93a47.25 47.25 0 0127.65 25.88 78.16 78.16 0 015.42 18.16l-30.63 4.61q-2.17-11.92-8.27-19.79t-20.46-7.86q-10.31 0-17.08 4.34a33.1 33.1 0 00-10.84 11.25 50.11 50.11 0 00-5.83 15.86 93.6 93.6 0 00-1.76 18.16 97.93 97.93 0 001.9 19.79 49 49 0 006 15.86 30.34 30.34 0 0010.84 10.57q6.77 3.93 16.53 3.93 14.09 0 21.41-7.45t9.22-21.28zm114.08 30.9a65.59 65.59 0 01-19.24 15.72q-11.38 6.23-27.65 6.23a65.48 65.48 0 01-18.7-2.57 43.06 43.06 0 01-15-7.73 35.65 35.65 0 01-10-13.15 44.91 44.91 0 01-3.66-18.84q0-14.64 6.5-23.72a44.89 44.89 0 0116.94-14.23 80.94 80.94 0 0123.45-7.18 231.22 231.22 0 0126-2.57l20.87-1.08v-6q0-16-7.72-22.09t-20.19-6.1q-14.37 0-21.28 4.88t-9.08 14.1l-28.19-3q3.79-20.59 18.7-30.09t40.93-9.49q16.8 0 27.78 4.34a43.62 43.62 0 0117.46 11.98 43.17 43.17 0 019.08 18 95.66 95.66 0 012.57 22.9v88.09h-29.54zm-20.33-47.43a123.41 123.41 0 00-22.36 3q-8.54 2.17-13.15 5.56a16.16 16.16 0 00-6.1 7.86 30.21 30.21 0 00-1.49 9.62q0 9.22 5.83 14.37t17.21 5.15q20.33 0 30.09-10.3t9.76-27.92v-8.13zm114.92-127.67v193.53h-30.9V133.58z"></path></svg>