<svg viewBox="0 0 24 24" fill="#D9D9D9" xmlns="http://www.w3.org/2000/svg"><path d="M12.168.001C5.419-.09-.09 5.42 0 12.167.091 18.64 5.361 23.91 11.833 24c6.75.092 12.258-5.417 12.166-12.165C23.91 5.36 18.64.09 12.168 0zM19.46 18.88a.23.23 0 01-.354-.018 7.17 7.17 0 00-1.866-1.707c-1.47-.943-3.33-1.462-5.24-1.462-1.91 0-3.772.52-5.24 1.462a7.168 7.168 0 00-1.867 1.706.232.232 0 01-.354.019 10.113 10.113 0 01-2.693-6.706C1.753 6.56 6.36 1.861 11.976 1.847 17.592 1.833 22.154 6.393 22.154 12c.002 2.55-.96 5.008-2.693 6.88z"></path><path d="M12 5.537c-1.07 0-2.039.426-2.727 1.201-.688.775-1.031 1.846-.954 2.996.158 2.265 1.81 4.11 3.681 4.11 1.873 0 3.52-1.845 3.682-4.11.08-1.138-.261-2.2-.96-2.989A3.584 3.584 0 0012 5.537z"></path></svg>